<svg width="145" height="61" viewBox="0 0 145 61" fill="none" xmlns="http://www.w3.org/2000/svg">
<path d="M139.437 32.3193H143.262V46.2236H145V60.1279H55.9834V56.7461H77.8896V50.3574H68.8486V44.3447H94.5801V46.2236H103.621V42.0898H129.353V46.2236H139.437V39.835H135.611V25.5547H139.437V32.3193ZM43.8135 39.459H35.1191V43.2168H17.3857V38.3311H26.0791V34.5732H43.8135V39.459ZM17.7334 2.63086H58.7656V1.50293H93.5381V8.64355H61.8945V12.0254H85.1924V19.166H50.4199V14.2803H46.2471V16.9111H28.5137V14.2803H21.9072V18.0381H4.17285V13.1533H5.56348V4.88477H0V0H17.7334V2.63086Z" fill="url(#paint0_linear_88_262)"/>
<defs>
<linearGradient id="paint0_linear_88_262" x1="1.10165e-05" y1="62.2493" x2="152.154" y2="3.45686" gradientUnits="userSpaceOnUse">
<stop stop-color="#110E25"/>
<stop offset="0.5" stop-color="#160078"/>
<stop offset="1" stop-color="#2B007A"/>
</linearGradient>
</defs>
</svg>
