<svg width="118" height="79" viewBox="0 0 118 79" fill="none" xmlns="http://www.w3.org/2000/svg">
<path d="M39.3457 0.5C40.1443 0.5 40.9356 0.658436 41.6729 0.966797C42.3179 1.2366 42.9107 1.61668 43.4258 2.08887L43.6416 2.29688L43.6445 2.2998C44.2118 2.86464 44.6624 3.53668 44.9697 4.27734C45.2771 5.01802 45.4355 5.81273 45.4355 6.61523C45.4355 7.4177 45.2771 8.21248 44.9697 8.95312C44.6624 9.6937 44.2117 10.3659 43.6445 10.9307L43.6436 10.9316L15.4727 39.1465L15.1201 39.5L15.4727 39.8535L43.6436 68.0684L43.6445 68.0693C44.2117 68.6341 44.6624 69.3063 44.9697 70.0469C45.2771 70.7875 45.4355 71.5823 45.4355 72.3848C45.4355 73.1873 45.2771 73.982 44.9697 74.7227C44.6624 75.4633 44.2118 76.1354 43.6445 76.7002L43.6416 76.7031C43.079 77.2726 42.41 77.7249 41.6729 78.0332C40.9356 78.3416 40.1443 78.5 39.3457 78.5C38.5473 78.5 37.7567 78.3415 37.0195 78.0332C36.2823 77.7248 35.6124 77.2726 35.0498 76.7031L35.0488 76.7021L2.29199 43.8164L2.29102 43.8154L2.08301 43.5986C1.61271 43.0816 1.23473 42.4858 0.96582 41.8379C0.658443 41.0972 0.5 40.3025 0.5 39.5C0.5 38.6975 0.658443 37.9028 0.96582 37.1621C1.27319 36.4215 1.7238 35.7494 2.29102 35.1846L2.29199 35.1836L35.0488 2.29785L35.0498 2.29688C35.6124 1.72738 36.2823 1.27516 37.0195 0.966797C37.7567 0.658526 38.5473 0.500038 39.3457 0.5ZM78.6543 0.510742C79.4521 0.510781 80.2423 0.669033 80.9795 0.975586C81.7166 1.28213 82.3867 1.73129 82.9512 2.29785L115.708 35.1836L115.709 35.1846C116.276 35.7494 116.727 36.4215 117.034 37.1621C117.342 37.9028 117.5 38.6975 117.5 39.5C117.5 40.3025 117.342 41.0972 117.034 41.8379C116.727 42.5785 116.276 43.2506 115.709 43.8154L115.708 43.8164L82.9512 76.7021L82.9502 76.7031C82.3875 77.2726 81.7177 77.7248 80.9805 78.0332C80.2434 78.3415 79.4527 78.5 78.6543 78.5C77.8557 78.5 77.0644 78.3416 76.3271 78.0332C75.6821 77.7634 75.0893 77.3833 74.5742 76.9111L74.3584 76.7031L74.3555 76.7002L74.1484 76.4834C73.678 75.9662 73.2992 75.3708 73.0303 74.7227C72.7229 73.982 72.5645 73.1873 72.5645 72.3848C72.5645 71.5823 72.7229 70.7875 73.0303 70.0469C73.3376 69.3063 73.7883 68.6341 74.3555 68.0693L74.3564 68.0684L102.527 39.8535L102.88 39.5L102.527 39.1465L74.3564 10.9316C73.2166 9.78715 72.5762 8.23453 72.5762 6.61523C72.5762 5.81339 72.7335 5.01902 73.0391 4.27832C73.3447 3.53776 73.792 2.86447 74.3564 2.29785C75.4965 1.1534 77.0429 0.510742 78.6543 0.510742Z" stroke="black"/>
</svg>
